# xmcd
#
# Track frame offsets:
#	150
#	10343
#	16134
#	48961
#	54327
#	111734
#	161717
#	205633
#
# Disc length: 3188 seconds
# Revision: 0
# Processed by: cddbd v1.5.2PL0 Copyright (c) Steve Scherf et al.
# Submitted via: dBpowerAMP V12.0
#
DISCID=610c7208
DTITLE=Hale Dwoskin - The Inner Circle Retreat 02 CD 05
DYEAR=2007
DGENRE=Speech
TTITLE0=Q and A, Sharing and Assistance
TTITLE1=Learning
TTITLE2=Release on Learning
TTITLE3=Summary of Release
TTITLE4=Enlightenment
TTITLE5=Being Taken Advantage of
TTITLE6=Feeling Repulsive
TTITLE7=Being in a Helping Profession
EXTD=
EXTT0=
EXTT1=
EXTT2=
EXTT3=
EXTT4=
EXTT5=
EXTT6=
EXTT7=
PLAYORDER=
